<?xml version="1.0" encoding="utf-8"?>
<!-- Generator: Adobe Illustrator 21.0.2, SVG Export Plug-In . SVG Version: 6.00 Build 0)  -->
<svg version="1.1" id="Layer_1" xmlns="http://www.w3.org/2000/svg" xmlns:xlink="http://www.w3.org/1999/xlink" x="0px" y="0px"
	 viewBox="0 0 130 90" style="enable-background:new 0 0 130 90;" xml:space="preserve">
<style type="text/css">
	.st0{fill:url(#SVGID_1_);}
	.st1{fill:url(#SVGID_2_);}
	.st2{fill:#14559A;}
	.st3{fill:url(#SVGID_3_);}
	.st4{fill:#1969BC;}
	.st5{fill:url(#SVGID_4_);}
	.st6{fill:url(#SVGID_5_);}
	.st7{fill:url(#SVGID_6_);}
	.st8{fill:#2B74B1;}
	.st9{fill:#125A9E;}
	.st10{fill:url(#SVGID_7_);}
	.st11{fill:url(#SVGID_8_);}
	.st12{fill:#0D82CA;}
	.st13{fill:url(#SVGID_9_);}
	.st14{fill:#127BCA;}
	.st15{fill:url(#SVGID_10_);}
	.st16{fill:url(#SVGID_11_);}
	.st17{fill:#05A1E6;}
	.st18{fill:url(#SVGID_12_);}
	.st19{fill:url(#SVGID_13_);}
	.st20{fill:url(#SVGID_14_);}
	.st21{fill:#079AE1;}
	.st22{fill:#1E5CB3;}
	.st23{fill:#1D60B5;}
	.st24{fill:#175FAB;}
	.st25{fill:url(#SVGID_15_);}
	.st26{fill:#5EC5ED;}
	.st27{fill:url(#SVGID_16_);}
</style>
<g>
	
		<linearGradient id="SVGID_1_" gradientUnits="userSpaceOnUse" x1="-0.8269" y1="91.1796" x2="-0.8269" y2="91.1269" gradientTransform="matrix(445.3907 0 0 -794.2871 427.7676 72450.8125)">
		<stop  offset="0" style="stop-color:#0994DC"/>
		<stop  offset="0.35" style="stop-color:#66CEF5"/>
		<stop  offset="0.35" style="stop-color:#66CEF5"/>
		<stop  offset="0.8462" style="stop-color:#127BCA"/>
		<stop  offset="0.8462" style="stop-color:#127BCA"/>
		<stop  offset="1" style="stop-color:#127BCA"/>
	</linearGradient>
	<path className="st0" d="M51.6,34.6c3.2,9.7,4.4,27,13.6,27c0.7,0,1.4-0.1,2.1-0.2c-8.4-2-9.4-19-14.6-27.9
		C52.4,33.9,52,34.3,51.6,34.6"/>
	
		<linearGradient id="SVGID_2_" gradientUnits="userSpaceOnUse" x1="-0.8102" y1="91.1445" x2="-0.8102" y2="91.0917" gradientTransform="matrix(467.4707 0 0 -814.5215 439.7988 74266.1016)">
		<stop  offset="0" style="stop-color:#0E76BC"/>
		<stop  offset="0.36" style="stop-color:#36AEE8"/>
		<stop  offset="0.36" style="stop-color:#36AEE8"/>
		<stop  offset="0.8462" style="stop-color:#00ADEF"/>
		<stop  offset="0.8462" style="stop-color:#00ADEF"/>
		<stop  offset="1" style="stop-color:#00ADEF"/>
	</linearGradient>
	<path className="st1" d="M52.8,33.5c5.1,8.8,6.1,25.9,14.6,27.9c0.7-0.1,1.3-0.3,2-0.5c-7.6-3.7-9.6-20.3-15.5-28.3
		C53.5,32.9,53.1,33.2,52.8,33.5"/>
	<path className="st2" d="M60.2,28.2c-0.7,0-1.4,0.1-2.1,0.2c-1.9,0.4-3.8,1.2-5.7,2.4c0.5,0.5,1,1.1,1.5,1.8c2-1.6,3.9-2.8,5.8-3.5
		c0.7-0.3,1.4-0.5,2.2-0.6C61.3,28.3,60.8,28.2,60.2,28.2"/>
	
		<linearGradient id="SVGID_3_" gradientUnits="userSpaceOnUse" x1="-1.4636" y1="90.9536" x2="-1.4636" y2="90.995" gradientTransform="matrix(443.8769 0 0 -825.1953 719.3497 75115.1328)">
		<stop  offset="0" style="stop-color:#1C63B7"/>
		<stop  offset="0.5" style="stop-color:#33BDF2"/>
		<stop  offset="1" style="stop-color:#33BDF2;stop-opacity:0.42"/>
	</linearGradient>
	<path className="st3" d="M75.2,57.4c0.8-0.6,1.6-1.3,2.3-2c-3.2-9.6-4.4-27.2-13.7-27.2c-0.7,0-1.3,0.1-2,0.2
		C70.3,30.6,71.4,49,75.2,57.4"/>
	<path className="st4" d="M75.1,59.5c-0.4-0.3-0.7-0.7-1.1-1.1c-1.6,1.1-3.1,2-4.7,2.5c0.6,0.3,1.1,0.5,1.7,0.6c0.5,0.1,1,0.1,1.5,0.1
		c1.7,0,3.1-0.2,4.3-0.8C76.2,60.5,75.6,60,75.1,59.5"/>
	
		<linearGradient id="SVGID_4_" gradientUnits="userSpaceOnUse" x1="-1.3533" y1="91.0059" x2="-1.3533" y2="90.9532" gradientTransform="matrix(439.5606 0 0 -845.6836 662.2889 76984.8359)">
		<stop  offset="0" style="stop-color:#166AB8"/>
		<stop  offset="0.4" style="stop-color:#36AEE8"/>
		<stop  offset="0.4" style="stop-color:#36AEE8"/>
		<stop  offset="0.8462" style="stop-color:#0798DD"/>
		<stop  offset="0.8462" style="stop-color:#0798DD"/>
		<stop  offset="1" style="stop-color:#0798DD"/>
	</linearGradient>
	<path className="st5" d="M59.7,29c7.6,4,8.3,22,14.3,29.3c0.4-0.3,0.8-0.6,1.2-0.9c-3.8-8.4-4.9-26.9-13.4-29
		C61.1,28.6,60.4,28.8,59.7,29"/>
	
		<linearGradient id="SVGID_5_" gradientUnits="userSpaceOnUse" x1="-0.5327" y1="91.0244" x2="-0.5327" y2="90.9716" gradientTransform="matrix(569.834 0 0 -899.2383 367.4649 81875.4453)">
		<stop  offset="0" style="stop-color:#124379"/>
		<stop  offset="0.39" style="stop-color:#1487CB"/>
		<stop  offset="0.39" style="stop-color:#1487CB"/>
		<stop  offset="0.7802" style="stop-color:#165197"/>
		<stop  offset="0.7802" style="stop-color:#165197"/>
		<stop  offset="1" style="stop-color:#165197"/>
	</linearGradient>
	<path className="st6" d="M53.9,32.6c5.8,8,7.9,24.6,15.5,28.3c1.6-0.5,3.1-1.4,4.7-2.5C67.9,51,67.3,33,59.7,29
		C57.7,29.8,55.8,31,53.9,32.6"/>
	
		<linearGradient id="SVGID_6_" gradientUnits="userSpaceOnUse" x1="-2.3677" y1="91.3065" x2="-2.3324" y2="91.3065" gradientTransform="matrix(189.6387 0 0 -301.9629 493.8907 27608.5781)">
		<stop  offset="0" style="stop-color:#33BDF2;stop-opacity:0.698"/>
		<stop  offset="1" style="stop-color:#1DACD8"/>
	</linearGradient>
	<path className="st7" d="M47.9,34.4c-0.9,2.1-1.8,4.8-3,8.3c2.2-3.2,4.5-5.9,6.7-8.1c-0.3-0.9-0.6-1.8-1-2.6
		C49.6,32.8,48.7,33.6,47.9,34.4"/>
	<path className="st8" d="M51.4,31.5c-0.3,0.2-0.5,0.4-0.8,0.6c0.4,0.8,0.7,1.6,1,2.6c0.4-0.4,0.8-0.8,1.2-1.1
		C52.4,32.8,51.9,32.1,51.4,31.5"/>
	<path className="st9" d="M52.4,30.8c-0.3,0.2-0.6,0.4-1,0.6c0.5,0.6,1,1.3,1.4,2c0.3-0.3,0.7-0.6,1.1-0.9
		C53.4,31.9,52.9,31.3,52.4,30.8"/>
	
		<linearGradient id="SVGID_7_" gradientUnits="userSpaceOnUse" x1="-1.1037" y1="90.939" x2="-1.1037" y2="90.9736" gradientTransform="matrix(772.8809 0 0 -963.6634 948.2752 87694.3672)">
		<stop  offset="0" style="stop-color:#136AB4"/>
		<stop  offset="0.6" style="stop-color:#59CAF5;stop-opacity:0.549"/>
		<stop  offset="1" style="stop-color:#59CAF5;stop-opacity:0.235"/>
	</linearGradient>
	<path className="st10" d="M104.3,27.5C99.9,44.1,91,57.4,83.4,60.8h0c-0.1,0.1-0.3,0.1-0.4,0.2c0,0,0,0,0,0c0,0-0.1,0-0.1,0
		c0,0,0,0-0.1,0c-0.1,0-0.1,0-0.2,0.1c0,0-0.1,0-0.1,0c0,0-0.1,0-0.1,0c0,0-0.1,0-0.1,0c0,0-0.1,0-0.1,0c-0.1,0-0.1,0-0.2,0
		c0,0,0,0-0.1,0c0,0-0.1,0-0.1,0c0,0,0,0-0.1,0c0,0-0.1,0-0.1,0l-0.1,0c0.3,0.1,0.7,0.2,1.1,0.2c7.1,0,14.3-12.8,26.3-34.1
		L104.3,27.5L104.3,27.5L104.3,27.5z"/>
	
		<linearGradient id="SVGID_8_" gradientUnits="userSpaceOnUse" x1="1.0148" y1="90.9756" x2="1.0502" y2="90.9756" gradientTransform="matrix(703.3398 0 0 -968.3691 -692.701 88143.3438)">
		<stop  offset="0" style="stop-color:#05A1E6;stop-opacity:0.247"/>
		<stop  offset="1" style="stop-color:#05A1E6"/>
	</linearGradient>
	<path className="st11" d="M43.3,28.9C43.3,28.9,43.3,28.9,43.3,28.9C43.3,28.9,43.4,28.9,43.3,28.9L43.3,28.9c0.1,0,0.1-0.1,0.2-0.1
		c0,0,0,0,0,0c0,0,0,0,0,0c0,0,0.1,0,0.1,0h0c0.1,0,0.2-0.1,0.3-0.1c0,0,0,0,0,0c0,0,0.1,0,0.1,0c0,0,0,0,0.1,0c0,0,0.1,0,0.1,0
		c0,0,0,0,0,0c0.1,0,0.3-0.1,0.4-0.1c0,0,0,0,0.1,0c0,0,0.1,0,0.1,0c0,0,0,0,0.1,0c0,0,0.1,0,0.1,0h0c0.1,0,0.2,0,0.2,0h0
		c0,0,0.1,0,0.1,0c0,0,0,0,0.1,0c0,0,0.1,0,0.1,0c0,0,0,0,0.1,0c0.1,0,0.2,0,0.3,0c-0.3,0-0.5,0-0.8,0c-8,0-19.1,14.9-24.1,34.3h1
		c1.6-2.8,3-5.5,4.3-8.1C29.9,40.7,37,31.4,43.3,28.9"/>
	<path className="st12" d="M47.9,34.4c0.9-0.8,1.8-1.6,2.7-2.4c-0.2-0.4-0.4-0.9-0.7-1.3C49.2,31.7,48.5,32.9,47.9,34.4"/>
	
		<linearGradient id="SVGID_9_" gradientUnits="userSpaceOnUse" x1="0.7373" y1="90.9727" x2="0.7373" y2="91.02" gradientTransform="matrix(479.0137 0 0 -720.9277 -318.3457 65645.3828)">
		<stop  offset="0" style="stop-color:#318ED5"/>
		<stop  offset="1" style="stop-color:#38A7E4"/>
	</linearGradient>
	<path className="st13" d="M26.4,54.4c7.3-14.1,10.8-23.1,16.9-25.5C37,31.4,29.9,40.7,26.4,54.4"/>
	<path className="st14" d="M50.4,30.3c-0.1,0.1-0.3,0.3-0.4,0.5c0.2,0.4,0.5,0.8,0.7,1.3c0.3-0.2,0.5-0.4,0.8-0.6
		C51.1,31.1,50.7,30.7,50.4,30.3"/>
	
		<linearGradient id="SVGID_10_" gradientUnits="userSpaceOnUse" x1="0.5482" y1="91.665" x2="0.5482" y2="91.7245" gradientTransform="matrix(445.3516 0 0 -557.8906 -207.1641 51199.8086)">
		<stop  offset="0" style="stop-color:#05A1E6"/>
		<stop  offset="1" style="stop-color:#05A1E6;stop-opacity:0.549"/>
	</linearGradient>
	<path className="st15" d="M29.7,62.4c0,0-0.1,0-0.1,0h0c0,0-0.1,0-0.1,0h0c-0.1,0-0.2,0-0.3,0h0c7.4-0.2,10.8-3.9,12.5-9.3
		c1.3-4.1,2.3-7.5,3.3-10.4c-3.1,4.4-6.2,9.6-9.4,15.4C34,61,31.7,62.2,29.7,62.4"/>
	
		<linearGradient id="SVGID_11_" gradientUnits="userSpaceOnUse" x1="0.5788" y1="91.1691" x2="0.5788" y2="91.2045" gradientTransform="matrix(512.8906 0 0 -791.9336 -258.0918 72262.3203)">
		<stop  offset="0" style="stop-color:#1959A6"/>
		<stop  offset="0.5" style="stop-color:#05A1E6"/>
		<stop  offset="0.5" style="stop-color:#05A1E6"/>
		<stop  offset="0.9176" style="stop-color:#7EC5EA"/>
		<stop  offset="1" style="stop-color:#7EC5EA"/>
	</linearGradient>
	<path className="st16" d="M29.7,62.4c2-0.3,4.3-1.4,5.8-4.2c3.1-5.8,6.3-11.1,9.4-15.4c1.1-3.5,2.1-6.3,3-8.3
		C41.7,40.3,35.4,50.1,29.7,62.4"/>
	<path className="st17" d="M26.4,54.4c-1.3,2.5-2.7,5.2-4.3,8.1h2.8C25.2,59.8,25.7,57.1,26.4,54.4"/>
	
		<linearGradient id="SVGID_12_" gradientUnits="userSpaceOnUse" x1="0.8911" y1="90.9616" x2="0.8836" y2="90.993" gradientTransform="matrix(709.7363 0 0 -966.8456 -592.5938 88006.4219)">
		<stop  offset="0" style="stop-color:#165096"/>
		<stop  offset="1" style="stop-color:#0D82CA"/>
	</linearGradient>
	<path className="st18" d="M45.7,28.3C45.7,28.3,45.7,28.3,45.7,28.3c-0.1,0-0.1,0-0.2,0c0,0,0,0-0.1,0c0,0-0.1,0-0.1,0c0,0,0,0,0,0
		c-0.1,0-0.2,0-0.2,0h0c0,0-0.1,0-0.1,0c0,0,0,0-0.1,0c0,0-0.1,0-0.1,0c0,0,0,0-0.1,0c-0.1,0-0.3,0.1-0.4,0.1c0,0,0,0,0,0
		c0,0-0.1,0-0.1,0c0,0,0,0-0.1,0c0,0-0.1,0-0.1,0c0,0,0,0,0,0c-0.1,0-0.2,0.1-0.3,0.1c0,0-0.1,0-0.1,0c0,0,0,0-0.1,0
		c0,0-0.1,0-0.1,0c0,0,0,0,0,0c-6.1,2.4-9.6,11.4-16.9,25.5c-0.7,2.7-1.2,5.4-1.5,8.1h0.4c1.1,0,1.4,0,2.7,0h1.2c0.1,0,0.2,0,0.3,0
		h0c0,0,0.1,0,0.1,0h0c0,0,0.1,0,0.1,0c5.7-12.3,12-22.1,18.1-28c0.7-1.5,1.4-2.7,2.1-3.6c-0.4-0.7-0.9-1.3-1.4-1.8c0,0,0,0,0,0
		c0,0-0.1,0-0.1,0c0,0-0.1,0-0.1,0c0,0-0.1,0-0.1,0c0,0-0.1,0-0.1,0c0,0-0.1,0-0.1,0c-0.1,0-0.1,0-0.2-0.1c0,0,0,0-0.1,0
		c0,0-0.1,0-0.1,0c0,0,0,0-0.1,0c-0.1,0-0.1,0-0.2-0.1h0c-0.1,0-0.1,0-0.2-0.1c0,0,0,0,0,0c-0.1,0-0.1,0-0.2,0c0,0,0,0,0,0
		c-0.1,0-0.3-0.1-0.4-0.1c0,0,0,0,0,0c-0.1,0-0.1,0-0.2,0c0,0,0,0,0,0c-0.1,0-0.1,0-0.2,0h0c-0.1,0-0.1,0-0.2,0
		C45.9,28.3,45.8,28.3,45.7,28.3"/>
	
		<linearGradient id="SVGID_13_" gradientUnits="userSpaceOnUse" x1="-4.303" y1="90.9614" x2="-4.303" y2="90.9898" gradientTransform="matrix(319.9902 0 0 -558.8477 1466.4689 50877.0156)">
		<stop  offset="0" style="stop-color:#05A1E6"/>
		<stop  offset="0.8736" style="stop-color:#0495D6"/>
		<stop  offset="1" style="stop-color:#0495D6"/>
	</linearGradient>
	<path className="st19" d="M87.4,36.7c-1.4,4.5-2.6,8.3-3.5,11.3c3.9-5.3,7.7-12,11.3-19.8C91,29.6,88.7,32.6,87.4,36.7"/>
	
		<linearGradient id="SVGID_14_" gradientUnits="userSpaceOnUse" x1="-1.8479" y1="90.9734" x2="-1.8589" y2="90.9345" gradientTransform="matrix(588.5743 0 0 -940.6543 1184.662 85600.6484)">
		<stop  offset="0" style="stop-color:#38A7E4;stop-opacity:0.329"/>
		<stop  offset="0.9615" style="stop-color:#0E88D3"/>
		<stop  offset="0.9615" style="stop-color:#0E88D3"/>
		<stop  offset="1" style="stop-color:#0E88D3"/>
	</linearGradient>
	<path className="st20" d="M84,60.5c-0.2,0.1-0.4,0.2-0.6,0.3c7.5-3.4,16.5-16.7,20.8-33.3h-0.9C93.5,45.2,90.3,57,84,60.5"/>
	<path className="st21" d="M79.1,59c1.6-2,3-5.4,4.8-11c-2.1,2.9-4.2,5.4-6.3,7.4c0,0,0,0,0,0C78,56.8,78.5,58,79.1,59"/>
	<path className="st4" d="M79.1,59c-0.6,0.7-1.1,1.2-1.8,1.6c-0.1,0.1-0.3,0.2-0.4,0.2c0.7,0.4,1.5,0.6,2.3,0.7c0.1,0,0.2,0,0.4,0h0
		c0.1,0,0.1,0,0.2,0h0.6c0,0,0,0,0.1,0c0,0,0.1,0,0.1,0h0.1c0,0,0.1,0,0.1,0h0c0,0,0,0,0,0c0.1,0,0.1,0,0.2,0h0c0.1,0,0.1,0,0.2,0h0
		c0.1,0,0.2,0,0.4-0.1C80.6,61.1,79.8,60.2,79.1,59"/>
	<path className="st22" d="M65.2,61.6c0.7,0,1.4-0.1,2.1-0.2c0.7-0.1,1.3-0.3,2-0.5c0.6,0.3,1.1,0.5,1.7,0.6c0.5,0.1,1,0.1,1.5,0.1H65.2
		z"/>
	<path className="st22" d="M72.6,61.6c1.7,0,3.1-0.2,4.3-0.8c0.7,0.4,1.5,0.6,2.3,0.7c0.1,0,0.2,0,0.4,0h0c0.1,0,0.1,0,0.2,0h0.2
		L72.6,61.6L72.6,61.6L72.6,61.6z"/>
	<path className="st23" d="M79.9,61.6h0.4c0,0,0,0,0.1,0c0,0,0.1,0,0.1,0h0.1c0,0,0.1,0,0.1,0h0c0,0,0,0,0,0c0.1,0,0.1,0,0.2,0
		c0,0,0,0,0,0c0.1,0,0.1,0,0.2,0h0c0.1,0,0.2,0,0.4-0.1c0.3,0.1,0.7,0.2,1.1,0.2L79.9,61.6L79.9,61.6z"/>
	<path className="st24" d="M77.6,55.4L77.6,55.4c-0.7,0.7-1.5,1.4-2.3,2c-0.4,0.3-0.8,0.6-1.2,0.9c0.3,0.4,0.7,0.8,1.1,1.1
		c0.6,0.5,1.1,1,1.8,1.3c0.1-0.1,0.3-0.2,0.4-0.2c0.7-0.4,1.2-0.9,1.8-1.6C78.5,58,78,56.8,77.6,55.4"/>
	
		<linearGradient id="SVGID_15_" gradientUnits="userSpaceOnUse" x1="-1.2722" y1="90.9726" x2="-1.2722" y2="90.9364" gradientTransform="matrix(686.3376 0 0 -958.1152 964.3986 87189.5859)">
		<stop  offset="0" style="stop-color:#168CD4"/>
		<stop  offset="0.5" style="stop-color:#1C87CC"/>
		<stop  offset="1" style="stop-color:#154B8D"/>
	</linearGradient>
	<path className="st25" d="M100.6,27.5h-4.4c-0.2,0-0.5,0-0.7,0c-0.1,0.2-0.2,0.5-0.3,0.7C91.6,36,87.8,42.7,83.9,48
		c-1.8,5.6-3.2,9-4.8,11c0.7,1.2,1.5,2,2.5,2.4c0,0,0.1,0,0.1,0h0c0,0,0,0,0.1,0c0,0,0.1,0,0.1,0c0,0,0,0,0.1,0c0,0,0.1,0,0.1,0
		c0,0,0,0,0.1,0c0.1,0,0.1,0,0.2,0c0,0,0.1,0,0.1,0c0,0,0.1,0,0.1,0c0,0,0.1,0,0.1,0c0,0,0.1,0,0.1,0c0.1,0,0.1,0,0.2-0.1
		c0,0,0,0,0.1,0c0,0,0.1,0,0.1,0c0,0,0,0,0,0c0.1-0.1,0.3-0.1,0.4-0.2h0c0.2-0.1,0.4-0.2,0.6-0.3c6.3-3.5,9.5-15.3,19.4-33
		L100.6,27.5L100.6,27.5L100.6,27.5z"/>
	<path className="st26" d="M50.4,30.3c0.4,0.4,0.7,0.7,1,1.1c0.3-0.2,0.6-0.4,1-0.6C52,30.4,51.5,30,51,29.7
		C50.8,29.9,50.6,30.1,50.4,30.3"/>
	
		<linearGradient id="SVGID_16_" gradientUnits="userSpaceOnUse" x1="-1.9923" y1="90.9657" x2="-1.9923" y2="90.9227" gradientTransform="matrix(508.2521 0 0 -787.4512 1099.1249 71660.3672)">
		<stop  offset="0" style="stop-color:#1DA7E7"/>
		<stop  offset="1" style="stop-color:#37ABE7;stop-opacity:0"/>
	</linearGradient>
	<path className="st27" d="M83.9,48c1-3.1,2.1-6.8,3.6-11.3c1.3-4.1,3.5-7.1,7.8-8.5c0.1-0.2,0.2-0.5,0.3-0.7
		c-6.9,0.4-10.1,3.9-11.8,9.1c-2.8,9.1-4.6,15-6.2,18.7C79.7,53.4,81.8,50.9,83.9,48"/>
	<path d="M94,59.2h-0.8v2.4h-0.3v-2.4h-0.8v-0.3H94L94,59.2L94,59.2z M97.2,61.6h-0.3v-1.8c0-0.1,0-0.3,0-0.5c0,0.1-0.1,0.2-0.1,0.3
		l-0.9,2.1h-0.2l-0.9-2.1c0-0.1-0.1-0.2-0.1-0.3h0c0,0.1,0,0.3,0,0.5v1.8h-0.3v-2.7h0.4l0.8,1.9c0.1,0.1,0.1,0.3,0.1,0.3h0
		c0.1-0.1,0.1-0.3,0.1-0.3l0.9-1.9h0.4L97.2,61.6L97.2,61.6L97.2,61.6z"/>
</g>
</svg>
