<?xml version="1.0" encoding="utf-8"?>
<!-- Generator: Adobe Illustrator 24.2.0, SVG Export Plug-In . SVG Version: 6.00 Build 0)  -->
<svg version="1.1" id="Layer_1" xmlns="http://www.w3.org/2000/svg" xmlns:xlink="http://www.w3.org/1999/xlink" x="0px" y="0px"
	 viewBox="0 0 130 90" style="enable-background:new 0 0 130 90;" xml:space="preserve">
<style type="text/css">
	.st0{fill:#EE4323;}
</style>
<g id="Layer_2_1_">
	<g id="codeigniter">
		<path class="st0" d="M57.6,69.9c-3.3-1.4-5.5-4.4-5.8-8c0.2-3.6,2.1-6.9,5.2-8.8c-0.5,1.2-0.4,2.6,0.3,3.8
			c0.8,1.1,2.2,1.6,3.5,1.4c3.1-0.7,3.2-4.2,1.4-6.1c-1.9-2-3.6-4.2-2.9-7c0.4-1.5,1.2-2.8,2.3-3.8c-0.9,2.3,1.6,4.5,3.2,5.6
			c2.9,1.7,5.7,3.6,8.4,5.6c2.9,2.2,4.5,5.6,4.3,9.2c-0.7,3.9-3.5,7-7.2,8.2c7.5-1.7,15.3-7.5,15.5-15.9c0.1-6.9-4.6-12.2-10.4-15.2
			L75,38.8c0.1,0.3,0.2,0.7,0.2,1c0-0.2,0-0.5,0-0.7c0,0.3,0,0.6,0,0.8v-0.2c-0.1,0.4-0.2,0.7-0.4,1l0.1-0.1
			c-1.2,1.7-3.5,2.1-5.2,0.9c-0.2-0.2-0.5-0.4-0.6-0.6c-2.5-3.2,0-6.7,0.4-10.1c0.1-4.4-2-8.5-5.6-10.9c1.9,3-0.6,6.9-2.5,9.1
			c-1.9,2.2-4.1,3.9-6.2,5.8c-2.2,2.1-4.2,4.3-6,6.7c-3.6,4.9-5.9,11-4.2,17.1C46.7,64.5,51.6,68.8,57.6,69.9L57.6,69.9z"/>
	</g>
</g>
</svg>
