<?xml version="1.0" encoding="utf-8"?>
<!-- Generator: Adobe Illustrator 24.2.0, SVG Export Plug-In . SVG Version: 6.00 Build 0)  -->
<svg version="1.1" id="Layer_1" xmlns="http://www.w3.org/2000/svg" xmlns:xlink="http://www.w3.org/1999/xlink" x="0px" y="0px"
	 viewBox="0 0 130 90" style="enable-background:new 0 0 130 90;" xml:space="preserve">
<style type="text/css">
	.st0{fill:#326CE5;}
	.st1{fill:#FFFFFF;stroke:#FFFFFF;stroke-width:5.398700e-02;stroke-miterlimit:10;}
</style>
<g transform="matrix(.215948 0 0 .215948 2.339411 32.398966)">
	<path class="st0" d="M289.3-57.4c-2.1,0.1-4.2,0.7-6.1,1.6l-83,39.6c-4.3,2.1-7.5,6-8.6,10.7l-20.3,89c-1,4.2-0.2,8.6,2.2,12.1
		c0.3,0.4,0.6,0.9,0.9,1.3l57.4,71.4c3,3.7,7.6,5.9,12.4,5.9h92.1c4.8,0,9.4-2.2,12.4-5.9L406,96.8c3-3.7,4.1-8.6,3.1-13.3
		L388.6-5.6c-1.1-4.7-4.2-8.6-8.6-10.7l-83-39.5C294.7-57,292-57.5,289.3-57.4z"/>
	<path class="st1" d="M290.2-27.1c-2.9,0.2-5,2.7-4.9,5.5v1.4c0.1,1.6,0.4,3.2,0.7,4.7c0.5,3,0.6,6,0.5,9c-0.3,1-0.9,1.9-1.6,2.6
		l-0.1,2.1c-3,0.3-6,0.7-9,1.4c-12.4,2.8-23.7,9.3-32.5,18.5l-1.8-1.3c-1,0.3-2,0.2-2.9-0.3c-2.4-1.8-4.7-3.8-6.7-6
		c-1-1.2-2.1-2.4-3.3-3.5l-1.1-0.9c-1-0.8-2.2-1.2-3.5-1.3c-1.5-0.1-3,0.6-4,1.8c-1.7,2.4-1.1,5.6,1.2,7.3l1,0.8
		c1.3,0.9,2.7,1.7,4.1,2.4c2.6,1.5,5.1,3.2,7.4,5.1c0.6,0.8,0.9,1.8,1,2.9l1.6,1.4c-8.8,13.2-12.4,29.1-10.1,44.8l-2.1,0.6
		c-0.5,0.9-1.3,1.6-2.1,2.1c-2.9,0.8-5.9,1.3-8.9,1.5c-1.6,0-3.2,0.2-4.8,0.4l-1.3,0.3H207c-2.7,0.4-4.6,2.9-4.3,5.6
		c0.1,1.1,0.6,2.1,1.4,2.8c1.3,1.3,3.3,1.8,5.1,1.2h0.1l1.4-0.2c1.5-0.5,3-1,4.5-1.6c2.8-1.1,5.7-2,8.7-2.5c1,0.1,2,0.4,2.8,1
		l2.2-0.4c4.8,15,15,27.8,28.6,35.8l-0.9,1.9c0.4,0.9,0.6,1.8,0.4,2.8c-1.2,2.9-2.7,5.6-4.5,8.1c-1,1.3-1.9,2.6-2.7,4l-0.7,1.3
		c-1.4,2.4-0.6,5.4,1.8,6.8c0.9,0.5,2,0.8,3.1,0.7c1.9-0.2,3.5-1.5,4.1-3.2l0.6-1.3c0.6-1.5,1-3,1.4-4.6c1.3-3.3,2-6.8,3.8-8.9
		c0.6-0.6,1.3-0.9,2.1-1l1.1-2c14.7,5.7,31.1,5.7,45.8,0.1l1,1.9c1,0.2,1.9,0.7,2.5,1.5c1.4,2.7,2.5,5.5,3.4,8.4
		c0.4,1.5,0.9,3.1,1.4,4.6l0.6,1.3c1,2.6,3.8,3.9,6.4,2.9c1-0.4,1.9-1.1,2.4-2c1-1.6,1.1-3.6,0.1-5.2l-0.7-1.3
		c-0.8-1.4-1.7-2.7-2.7-4c-1.7-2.5-3.2-5.1-4.4-7.9c-0.2-1-0.1-2.1,0.5-3c-0.3-0.6-0.6-1.3-0.8-2c13.6-8.1,23.7-20.9,28.5-35.9
		l2.1,0.4c0.8-0.7,1.8-1.1,2.8-1c3,0.6,5.9,1.4,8.7,2.5c1.5,0.7,2.9,1.2,4.5,1.7c0.4,0.1,0.9,0.2,1.3,0.3h0.1
		c2.6,0.9,5.4-0.6,6.3-3.2c0.3-1,0.3-2.1,0-3.2c-0.6-1.8-2.2-3.1-4.1-3.3l-1.5-0.3c-1.6-0.2-3.2-0.3-4.8-0.4c-3-0.2-6-0.7-8.9-1.5
		c-0.9-0.5-1.6-1.2-2.1-2.1l-2-0.6c2.1-15.7-1.5-31.6-10.3-44.7l1.8-1.6c-0.1-1,0.3-2,0.9-2.8c2.3-2,4.8-3.7,7.4-5.2
		c1.4-0.7,2.8-1.5,4.1-2.4l1.1-0.9c2.3-1.5,3.1-4.5,1.6-6.9c-0.6-1-1.5-1.7-2.6-2.1c-1.8-0.6-3.8-0.2-5.2,1.2l-1.1,0.9
		c-1.2,1.1-2.2,2.3-3.3,3.5c-2,2.3-4.1,4.3-6.5,6.1c-1,0.4-2,0.5-3,0.3l-1.9,1.4C326,6.8,311.3-0.3,295.6-1.7c0-0.7-0.1-1.9-0.1-2.2
		c-0.8-0.6-1.4-1.5-1.6-2.5c-0.1-3,0.1-6,0.6-9c0.3-1.6,0.5-3.1,0.7-4.7v-1.4C295.3-24.4,293.1-26.9,290.2-27.1L290.2-27.1z
		 M284,11.4l-1.5,26.1h-0.1c-0.1,2.4-2.1,4.3-4.6,4.2c-0.9,0-1.7-0.3-2.4-0.8l-21.4-15.1c6.8-6.7,15.3-11.3,24.6-13.4
		C280.4,11.9,282.2,11.6,284,11.4L284,11.4z M296.4,11.4c11.2,1.4,21.7,6.4,29.7,14.3l-21.2,15c-1.9,1.5-4.6,1.2-6.2-0.7
		c-0.6-0.8-0.9-1.7-1-2.7L296.4,11.4z M246.3,35.5l19.5,17.4V53c1.8,1.6,2,4.4,0.4,6.2c-0.6,0.6-1.3,1.1-2.1,1.3v0.1L239,67.8
		C237.8,56.5,240.3,45.1,246.3,35.5L246.3,35.5z M333.9,35.5c5.9,9.7,8.6,21,7.5,32.3l-25.1-7.2v-0.1c-2.3-0.6-3.7-3-3.1-5.4
		c0.2-0.8,0.7-1.6,1.3-2.1L333.9,35.5L333.9,35.5z M286.2,54.3h8l4.9,6.2l-1.8,7.8l-7.2,3.5l-7.2-3.5l-1.7-7.8L286.2,54.3z
		 M311.8,75.5c0.3,0,0.7,0,1,0l25.9,4.4c-3.8,10.7-11.1,19.9-20.7,26.1l-10-24.2c-0.9-2.2,0.1-4.8,2.3-5.8
		C310.8,75.7,311.2,75.6,311.8,75.5L311.8,75.5z M268.4,75.6c2.4,0,4.3,2,4.3,4.4c0,0.6-0.1,1.1-0.4,1.7v0.1l-9.9,24
		c-9.5-6.1-16.7-15.2-20.5-25.8l25.6-4.4C267.7,75.6,268,75.6,268.4,75.6L268.4,75.6z M290,86.1c1.7,0,3.2,0.8,4,2.3h0.1l12.6,22.8
		c-1.7,0.6-3.3,1-5,1.4c-9.3,2.1-19,1.6-28-1.4l12.6-22.8C287.1,87,288.5,86.2,290,86.1L290,86.1z"/>
</g>
</svg>
