<?xml version="1.0" encoding="utf-8"?>
<!-- Generator: Adobe Illustrator 24.2.0, SVG Export Plug-In . SVG Version: 6.00 Build 0)  -->
<svg version="1.1" id="Layer_1" xmlns="http://www.w3.org/2000/svg" xmlns:xlink="http://www.w3.org/1999/xlink" x="0px" y="0px"
	 viewBox="0 0 130 90" style="enable-background:new 0 0 130 90;" xml:space="preserve">
<style type="text/css">
	.st0{fill:url(#SVGID_1_);}
</style>
<g id="Layer_2_1_">
	<g id="Layer_1-2">
		<g id="Asana">
			
				<radialGradient id="SVGID_1_" cx="227.5493" cy="179.0702" r="83.7772" gradientTransform="matrix(0.43 0 0 0.4 -32.4643 -24.177)" gradientUnits="userSpaceOnUse">
				<stop  offset="0" style="stop-color:#FFB900"/>
				<stop  offset="0.6" style="stop-color:#F95D8F"/>
				<stop  offset="1" style="stop-color:#F95353"/>
			</radialGradient>
			<path className="st0" d="M80.3,46.5c-6.5,0-11.8,5.3-11.8,11.8c0,6.5,5.3,11.8,11.8,11.8c6.5,0,11.8-5.3,11.8-11.8c0,0,0,0,0,0
				C92,51.7,86.8,46.5,80.3,46.5z M49.7,46.5c-6.5,0-11.8,5.3-11.8,11.8S43.2,70,49.7,70s11.8-5.3,11.8-11.8c0,0,0,0,0,0
				C61.5,51.7,56.2,46.5,49.7,46.5z M76.8,31.8c0,6.5-5.3,11.8-11.8,11.8s-11.8-5.3-11.8-11.8S58.5,20,65,20c0,0,0,0,0,0
				C71.5,20,76.8,25.3,76.8,31.8z"/>
		</g>
	</g>
</g>
</svg>
