<?xml version="1.0" encoding="utf-8"?>
<!-- Generator: Adobe Illustrator 21.0.2, SVG Export Plug-In . SVG Version: 6.00 Build 0)  -->
<svg version="1.1" id="Layer_1" xmlns="http://www.w3.org/2000/svg" xmlns:xlink="http://www.w3.org/1999/xlink" x="0px" y="0px"
	 viewBox="0 0 130 90" style="enable-background:new 0 0 130 90;" xml:space="preserve">
<style type="text/css">
	.st0{fill:#464EB8;}
	.st1{fill:#7B83EB;}
	.st2{fill:#FFFFFF;}
</style>
<path className="st0" d="M84.5,36.9c3.3,0,6-2.7,6-6.1c-0.3-8-11.7-8-12.1,0C78.5,34.2,81.2,36.9,84.5,36.9z"/>
<path className="st0" d="M88.5,38.5H77.7h0c0,0,0,0,0,0c-0.6,0-9.1,0-11.8,0v-2.1c0.5,0.1,0.9,0.1,1.4,0.2c0.1,0,0.1,0,0.2,0
	c0.2,0,0.4,0,0.6,0c0.1,0,0.1,0,0.2,0c0.2,0,0.5-0.1,0.7-0.1c0,0,0,0,0,0c1.1-0.2,2.1-0.6,3-1.2c0.8-0.6,1.5-1.3,2.1-2.1
	c0.1-0.2,0.3-0.4,0.4-0.6c0,0,0,0,0-0.1c0.1-0.2,0.2-0.3,0.3-0.5c0-0.1,0.1-0.1,0.1-0.2c0.1-0.2,0.2-0.4,0.2-0.6c0,0,0,0,0-0.1
	c0.8-2.4,0.4-5.3-1-7.4c-0.4-0.5-0.8-1-1.3-1.5c-0.1-0.1-0.2-0.2-0.3-0.3c-0.4-0.3-0.9-0.6-1.3-0.9c-0.2-0.1-0.5-0.2-0.7-0.3
	c-0.2-0.1-0.5-0.2-0.8-0.3c-0.2,0-0.3-0.1-0.5-0.1c-0.1,0-0.3-0.1-0.4-0.1c-0.1,0-0.2,0-0.3-0.1c-0.2,0-0.4-0.1-0.6-0.1
	c-0.1,0-0.1,0-0.2,0c-0.2,0-0.4,0-0.6,0c-1.2,0.1-2.3,0.3-3.2,0.7c-0.2,0.1-0.4,0.2-0.6,0.3c-1.9,1-3.3,2.7-3.9,4.8
	c-0.5,1.5-0.5,3.1-0.1,4.7c0,0,0,0,0,0c0,0.1,0,0.1,0.1,0.2c0,0.1,0,0.2,0.1,0.2c0,0.1,0,0.1,0.1,0.2H41.3c-1.6,0-3,1.3-3,3v21.6
	c0,1.6,1.3,3,3,3h11.6c0,0.1,0,0.1,0,0.2c1.6,6.3,7.2,10.7,13.7,10.8c5.5-0.1,10.1-3.3,12.5-7.8c0,0,0.1,0,0.1,0
	c5.8,2.2,12.5-2.4,12.4-8.7V41.6C91.6,39.9,90.2,38.5,88.5,38.5z"/>
<path className="st1" d="M80.8,41.7c0-1.7-1.3-3.1-3-3.2c0,0-12.3,0-12.3,0c-0.5,0-0.8,0.4-0.8,0.8v16.7c0,0.8-0.6,1.4-1.4,1.4h-9.6
	c-0.2,0-0.5,0.1-0.6,0.3c-0.2,0.2-0.2,0.4-0.2,0.7c1.4,6.6,7,11.4,13.8,11.6c8-0.2,14.3-6.8,14.1-14.8V41.7z M67.3,36.6
	c0.1,0,0.1,0,0.2,0c0.2,0,0.4,0,0.6,0c0.1,0,0.1,0,0.2,0c0.2,0,0.5-0.1,0.7-0.1c0,0,0,0,0,0c1.1-0.2,2.1-0.6,3-1.2
	c0.8-0.6,1.5-1.3,2.1-2.1c0.1-0.2,0.3-0.4,0.4-0.6c0,0,0,0,0-0.1c0.1-0.2,0.2-0.3,0.3-0.5c0-0.1,0.1-0.1,0.1-0.2
	c0.1-0.2,0.2-0.4,0.2-0.6c0,0,0,0,0-0.1c0.8-2.4,0.4-5.3-1-7.4c-0.4-0.5-0.8-1-1.3-1.5c-0.1-0.1-0.2-0.2-0.3-0.3
	c-0.4-0.3-0.9-0.6-1.3-0.9c-0.2-0.1-0.5-0.2-0.7-0.3c-0.2-0.1-0.5-0.2-0.8-0.3c-0.2,0-0.3-0.1-0.5-0.1c-0.1,0-0.3-0.1-0.4-0.1
	c-0.1,0-0.2,0-0.3-0.1c-0.2,0-0.4-0.1-0.6-0.1c-0.1,0-0.1,0-0.2,0c-0.2,0-0.4,0-0.6,0c-1.2,0.1-2.3,0.3-3.2,0.7
	c-0.2,0.1-0.4,0.2-0.6,0.3c-1.9,1-3.3,2.7-3.9,4.8c-0.5,1.5-0.5,3.1-0.1,4.7c0,0,0,0,0,0c0,0.1,0,0.1,0.1,0.2c0,0.1,0,0.2,0.1,0.2
	c0,0.1,0.1,0.2,0.1,0.3h0C60.6,34.1,63.2,36.4,67.3,36.6z"/>
<path className="st0" d="M63,31.1H41.3c-1.6,0-3,1.3-3,3v21.6c0,1.6,1.3,3,3,3H63c1.6,0,3-1.3,3-3V34.1C65.9,32.4,64.6,31.1,63,31.1z"/>
<path className="st2" d="M57.6,37.1H46.5c-0.4,0-0.8,0.4-0.8,0.8v2c0,0.4,0.4,0.8,0.8,0.8h3.6V52c0,0.4,0.4,0.8,0.8,0.8h2.4
	c0.4,0,0.8-0.4,0.8-0.8V40.7h3.5c0.4,0,0.8-0.4,0.8-0.8v-2C58.4,37.5,58,37.1,57.6,37.1z"/>
</svg>
