<?xml version="1.0" encoding="utf-8"?>
<!-- Generator: Adobe Illustrator 24.2.0, SVG Export Plug-In . SVG Version: 6.00 Build 0)  -->
<svg version="1.1" id="React" xmlns="http://www.w3.org/2000/svg" xmlns:xlink="http://www.w3.org/1999/xlink" x="0px" y="0px"
	 viewBox="0 0 130 90" style="enable-background:new 0 0 130 90;" xml:space="preserve">
<style type="text/css">
	.st0{fill:#00C492;}
	.st1{fill:#008776;}
	.st2{fill:#2D4A5D;}
</style>
<g id="g862" transform="matrix(2.5377204,0,0,2.5377204,-12.870824,-44.131613)">
	<path id="path12" className="st0" d="M25.5,44.3c0,0,0-0.1-0.1-0.1c-0.1-0.2-0.1-0.5-0.1-0.8h-6.3L28.4,27l3.1,5.4l0.9-1.6l-2.7-4.7
		c-0.3-0.5-0.7-0.8-1.3-0.9c-0.6,0-1,0.4-1.3,0.9l-9.4,16.6c-0.3,0.5-0.3,1.1-0.1,1.6c0.3,0.5,0.8,0.7,1.4,0.7h7.9
		C26.3,45,25.8,44.8,25.5,44.3z"/>
	<path id="path14" className="st1" d="M43.7,42.7l-7.8-13.7c-0.3-0.5-0.8-0.8-1.3-0.9c-0.6,0-1,0.4-1.3,0.9l-1,1.8l0.9,1.6l1.4-2.4
		l7.7,13.5h-2.9c0,0.2,0,0.5-0.1,0.7c0,0,0,0.1-0.1,0.1l0,0c-0.3,0.5-0.8,0.7-1.4,0.7h4.6c0.6,0,1.1-0.2,1.4-0.7
		C44,43.8,44,43.2,43.7,42.7z"/>
	<path id="path16" className="st2" d="M39.2,44.3L39.2,44.3c0-0.1,0.1-0.1,0.1-0.2c0.1-0.2,0.1-0.4,0.1-0.7c0-0.2-0.1-0.5-0.3-0.7
		l-5.9-10.3l-0.9-1.6l-0.9,1.6l-5.9,10.3c-0.1,0.2-0.2,0.4-0.2,0.7c0,0.3,0,0.5,0.1,0.8c0,0,0,0.1,0.1,0.1c0.3,0.5,0.8,0.7,1.4,0.7
		h10.9C38.4,45,38.9,44.7,39.2,44.3z M32.3,34l5.4,9.4H27L32.3,34z"/>
</g>
</svg>
